<?xml version="1.0" ?><svg xmlns="http://www.w3.org/2000/svg" xmlns:ev="http://www.w3.org/2001/xml-events" xmlns:xlink="http://www.w3.org/1999/xlink" baseProfile="tiny" height="274" version="1.2" width="264" stroke="#000000" stroke-width="3"><defs stroke="#000000" stroke-width="3"/><polygon fill="#ff69b4" points="131,131 130,132 130,133 128,135 128,136 127,137 127,138 125,140 125,141 124,142 124,143 123,144 123,145 121,147 121,148 120,149 120,150 118,152 118,153 117,154 117,155 115,157 115,158 114,159 114,160 113,161 113,162 111,164 111,165 110,166 110,167 108,169 108,170 107,171 107,172 105,174 105,175 103,177 103,178 102,179 102,180 101,181 101,182 99,184 99,185 98,186 98,187 96,189 96,190 95,191 95,192 93,194 93,195 92,196 92,197 90,199 90,200 89,201 41,201 40,202 39,202 39,203 38,204 38,205 36,207 36,208 35,209 35,210 34,211 34,212 32,214 32,215 31,216 31,217 29,219 29,220 28,221 28,223 101,223 103,221 103,220 105,218 105,217 106,216 106,215 107,214 107,213 109,211 109,210 110,209 110,208 112,206 112,205 113,204 113,203 115,201 115,200 116,199 116,198 118,196 118,195 119,194 119,193 121,191 121,190 122,189 122,188 124,186 124,185 125,184 125,183 127,181 127,180 128,179 128,178 130,176 130,175 131,174 131,173 133,171 133,170 134,169 134,168 135,167 135,166 137,164 137,163 138,162 138,161 140,159 140,158 141,157 141,156 143,154 143,153 144,152 144,150 143,149 143,148 142,147 142,146 140,144 140,143 138,141 138,140 136,138 136,137 135,136 135,135 133,133 133,132 132,131" stroke="#000000" stroke-width="3"/><polygon fill="#ff69b4" points="133,41 132,42 132,43 131,44 131,45 129,47 129,48 128,49 128,50 126,52 126,53 125,54 125,55 124,56 124,57 122,59 122,60 121,61 121,62 120,63 120,64 118,66 118,67 117,68 117,69 115,71 115,72 114,73 114,74 113,75 113,76 111,78 111,79 110,80 110,81 108,83 108,84 107,85 107,86 106,87 106,88 104,90 104,91 103,92 103,93 102,94 102,95 100,97 100,98 99,99 99,100 97,102 97,103 96,104 96,105 95,106 95,107 93,109 93,110 92,111 92,112 90,114 90,115 89,116 89,117 88,118 88,119 86,121 86,122 85,123 85,124 83,126 83,127 82,128 82,129 81,130 81,131 79,133 79,134 78,135 78,136 77,137 77,138 75,140 75,141 74,142 74,143 72,145 72,146 71,147 71,148 70,149 70,150 68,152 68,153 67,154 67,155 65,157 65,158 64,159 64,160 63,161 63,162 61,164 61,165 60,166 60,167 59,168 59,169 57,171 57,172 56,173 56,174 54,176 54,177 53,178 53,179 52,180 52,181 51,182 52,183 75,183 77,181 77,180 79,178 79,177 80,176 80,175 81,174 81,173 83,171 83,170 84,169 84,168 85,167 85,166 87,164 87,163 88,162 88,161 90,159 90,158 91,157 91,156 92,155 92,154 94,152 94,151 95,150 95,149 96,148 96,147 98,145 98,144 99,143 99,142 101,140 101,139 102,138 102,137 103,136 103,135 105,133 105,132 106,131 106,130 108,128 108,127 109,126 109,125 110,124 110,123 112,121 112,120 113,119 113,118 115,116 115,115 116,114 116,113 117,112 117,111 119,109 119,108 120,107 120,106 121,105 121,104 123,102 123,101 124,100 124,99 126,97 126,96 127,95 127,94 128,93 128,92 130,90 130,89 131,88 131,87 132,86 134,86 135,87 135,88 136,89 136,90 138,92 138,93 139,94 139,95 140,96 140,97 142,99 142,100 143,101 143,102 145,104 145,105 146,106 146,107 147,108 147,109 149,111 149,112 150,113 150,114 151,115 151,116 153,118 153,119 154,120 154,121 156,123 156,124 157,125 157,126 158,127 158,128 160,130 160,131 161,132 161,133 163,135 163,136 164,137 164,138 165,139 165,140 167,142 167,143 168,144 168,145 170,147 170,148 171,149 171,150 172,151 172,152 174,154 174,155 175,156 175,157 176,158 176,159 178,161 178,162 179,163 179,164 181,166 181,167 182,168 182,169 183,170 183,171 185,173 185,174 186,175 186,176 187,177 187,178 189,180 189,181 190,182 190,183 192,185 192,186 193,187 193,188 194,189 194,190 196,192 196,193 197,194 197,195 198,196 198,197 200,199 200,200 199,201 177,201 175,199 175,198 173,196 173,195 171,193 171,192 170,191 170,190 168,188 168,187 166,185 166,184 164,182 164,181 163,180 163,179 161,177 161,176 159,174 159,173 158,172 157,172 157,173 156,174 156,175 154,177 154,178 153,179 153,180 151,182 151,183 150,184 150,185 149,186 149,187 147,189 147,190 146,191 146,194 147,195 147,196 149,198 149,199 151,201 151,202 153,204 153,205 154,206 154,207 156,209 156,210 158,212 158,213 160,215 160,216 161,217 161,218 163,220 163,221 165,223 238,223 238,221 236,219 236,218 235,217 235,216 234,215 234,214 232,212 232,211 231,210 231,209 230,208 230,207 228,205 228,204 227,203 227,202 225,200 225,199 224,198 224,197 223,196 223,195 221,193 221,192 220,191 220,190 218,188 218,187 217,186 217,185 216,184 216,183 214,181 214,180 213,179 213,178 211,176 211,175 210,174 210,173 209,172 209,171 207,169 207,168 206,167 206,166 205,165 205,164 203,162 203,161 202,160 202,159 200,157 200,156 199,155 199,154 198,153 198,152 196,150 196,149 195,148 195,147 194,146 194,145 192,143 192,142 191,141 191,140 189,138 189,137 188,136 188,135 187,134 187,133 185,131 185,130 184,129 184,128 182,126 182,125 181,124 181,123 180,122 180,121 178,119 178,118 177,117 177,116 176,115 176,114 174,112 174,111 173,110 173,109 171,107 171,106 170,105 170,104 169,103 169,102 167,100 167,99 166,98 166,97 164,95 164,94 163,93 163,92 162,91 162,90 160,88 160,87 159,86 159,85 157,83 157,82 156,81 156,80 155,79 155,78 153,76 153,75 152,74 152,73 151,72 151,71 149,69 149,68 148,67 148,66 146,64 146,63 145,62 145,61 144,60 144,59 142,57 142,56 141,55 141,54 139,52 139,51 138,50 138,49 137,48 137,47 135,45 135,44 134,43 134,42" stroke="#000000" stroke-width="3"/></svg>